<?xml version="1.0" encoding="UTF-8" standalone="no"?>
<svg
   xmlns:dc="http://purl.org/dc/elements/1.1/"
   xmlns:cc="http://creativecommons.org/ns#"
   xmlns:rdf="http://www.w3.org/1999/02/22-rdf-syntax-ns#"
   xmlns:svg="http://www.w3.org/2000/svg"
   xmlns="http://www.w3.org/2000/svg"
   xmlns:sodipodi="http://sodipodi.sourceforge.net/DTD/sodipodi-0.dtd"
   xmlns:inkscape="http://www.inkscape.org/namespaces/inkscape"
   version="1.1"
   viewBox="0 0 210 297"
   id="svg184"
   sodipodi:docname="moon.svg"
   inkscape:version="1.0.2-2 (e86c870879, 2021-01-15)">
  <defs
     id="defs188" />
  <sodipodi:namedview
     pagecolor="#ffffff"
     bordercolor="#666666"
     borderopacity="1"
     objecttolerance="10"
     gridtolerance="10"
     guidetolerance="10"
     inkscape:pageopacity="0"
     inkscape:pageshadow="2"
     inkscape:window-width="1360"
     inkscape:window-height="705"
     id="namedview186"
     showgrid="false"
     inkscape:zoom="5.1235481"
     inkscape:cx="135.4046"
     inkscape:cy="175.62971"
     inkscape:window-x="1358"
     inkscape:window-y="-8"
     inkscape:window-maximized="1"
     inkscape:current-layer="svg184" />
  <metadata
     id="metadata2">
    <rdf:RDF>
      <cc:Work
         rdf:about="">
        <dc:format>image/svg+xml</dc:format>
        <dc:type
           rdf:resource="http://purl.org/dc/dcmitype/StillImage" />
        <dc:title />
      </cc:Work>
    </rdf:RDF>
  </metadata>
  <ellipse
     cx="109.31"
     cy="147.63"
     rx="94.005"
     ry="90.226"
     fill="#ececec"
     fill-opacity=".86747"
     stroke-width="0"
     id="ellipse4"
     style="fill:#ececec;fill-opacity:0.94377512" />
  <g
     fill="#ccc"
     fill-opacity=".86747"
     stroke="#f59200"
     stroke-width=".052917"
     id="g24"
     style="stroke-width:0;stroke-miterlimit:4;stroke-dasharray:none">
    <ellipse
       cx="68.414"
       cy="83.911"
       rx="10.205"
       ry="8.3155"
       id="ellipse6"
       style="stroke-width:0;stroke-miterlimit:4;stroke-dasharray:none" />
    <ellipse
       cx="72.571"
       cy="80.509"
       rx="2.2679"
       ry="1.8899"
       id="ellipse8"
       style="stroke-width:0;stroke-miterlimit:4;stroke-dasharray:none" />
    <ellipse
       cx="51.405"
       cy="85.801"
       rx="6.0476"
       ry="5.6696"
       id="ellipse10"
       style="stroke-width:0;stroke-miterlimit:4;stroke-dasharray:none" />
    <ellipse
       cx="50.649"
       cy="100.16"
       rx="7.5595"
       ry="6.4256"
       id="ellipse12"
       style="stroke-width:0;stroke-miterlimit:4;stroke-dasharray:none" />
    <ellipse
       cx="26.458"
       cy="161.4"
       rx="6.8036"
       ry="10.961"
       id="ellipse14"
       style="stroke-width:0;stroke-miterlimit:4;stroke-dasharray:none" />
    <ellipse
       cx="42.333"
       cy="182.18"
       rx="9.8274"
       ry="15.119"
       id="ellipse16"
       style="stroke-width:0;stroke-miterlimit:4;stroke-dasharray:none" />
    <ellipse
       cx="186.72"
       cy="119.82"
       rx="7.5595"
       ry="11.717"
       id="ellipse18"
       style="stroke-width:0;stroke-miterlimit:4;stroke-dasharray:none" />
    <ellipse
       cx="196.93"
       cy="144.01"
       rx="3.7798"
       ry="14.363"
       id="ellipse20"
       style="stroke-width:0;stroke-miterlimit:4;stroke-dasharray:none" />
    <ellipse
       cx="182.56"
       cy="143.63"
       rx="4.1577"
       ry="6.0476"
       id="ellipse22"
       style="stroke-width:0;stroke-miterlimit:4;stroke-dasharray:none" />
  </g>
  <ellipse
     cx="83.846"
     cy="131.99"
     rx="10.961"
     ry="13.229"
     fill-opacity=".86747"
     stroke="#f59200"
     stroke-width=".052917"
     id="ellipse26" />
  <ellipse
     cx="131.29"
     cy="131.99"
     rx="10.961"
     ry="13.229"
     fill-opacity=".86747"
     stroke="#f59200"
     stroke-width=".052917"
     id="ellipse28" />
  <g
     id="g44">
    <path
       d="m95.433 154.71c1.7282 4.4343 3.4562 8.8682 6.8342 10.894 3.378 2.0258 8.4056 1.6438 11.497-0.60999 3.0911-2.2538 4.2461-6.3797 5.401-10.505"
       fill="none"
       stroke="#000"
       stroke-width="1.665"
       id="path30" />
    <g
       stroke-width="0"
       id="g42">
      <ellipse
         cx="77.174"
         cy="128.69"
         rx="2.3386"
         ry="2.8063"
         fill="#fff"
         fill-opacity=".86747"
         id="ellipse32" />
      <ellipse
         cx="81.05"
         cy="132.43"
         rx="1.47"
         ry="1.6704"
         fill="#ececec"
         fill-opacity=".86747"
         id="ellipse34" />
      <ellipse
         cx="124.95"
         cy="128.29"
         rx="2.2718"
         ry="2.8063"
         fill="#fff"
         fill-opacity=".86747"
         id="ellipse36" />
      <ellipse
         cx="128.82"
         cy="132.03"
         rx="1.47"
         ry="1.6036"
         fill="#fff"
         fill-opacity=".86747"
         id="ellipse38" />
      <path
         d="m207.13 207.94-23.396 11.547-3.7517 25.819-18.211-18.683-25.715 4.4104 12.141-23.093-12.141-23.093 25.715 4.4104 18.211-18.683 3.7517 25.819z"
         fill="#ffe400"
         fill-opacity=".86747"
         id="path40" />
    </g>
  </g>
  <g
     id="g52">
    <path
       d="m87.165 154.04c-3.9117 3.3842-7.8234 6.7683-11.735 10.152"
       fill="#ff3acb"
       stroke="#f43044"
       stroke-width="2.18"
       id="path46" />
    <path
       d="m83.554 150.23c-3.8569 3.3489-7.7138 6.6977-11.571 10.047"
       fill="#ff8080"
       stroke="#f44430"
       stroke-width="2.18"
       id="path48" />
    <path
       d="m127.17 152.49c3.415 3.1642 6.8298 6.3281 8.5981 7.9411 1.7684 1.6129 1.8903 1.675 2.012 1.7369"
       fill="#ff8080"
       stroke="#f43044"
       stroke-width="2.1284"
       id="path50" />
  </g>
  <g
     fill="none"
     id="g156">
    <path
       d="m131.19 149.14c3.5069 3.1918 7.0134 6.3834 10.52 9.5748"
       stroke="#f43044"
       stroke-width="2.27"
       id="path54" />
    <g
       stroke="#000"
       id="g154">
      <g
         stroke-width=".26458px"
         id="g70">
        <path
           d="m75.217 123.41c-0.88168-0.88167-1.7636-1.7636-2.6458-2.6458"
           id="path56" />
        <path
           d="m75.217 123.41c-0.88168-0.88168-1.7636-1.7636-2.6458-2.6458"
           id="path58" />
        <path
           d="m75.217 123.41c-0.88168-0.88168-1.7636-1.7636-2.6458-2.6458"
           id="path60" />
        <path
           d="m74.162 126.31c-1.3856-1.3227-2.7716-2.6456-4.1577-3.9688"
           id="path62" />
        <path
           d="m77.202 121.42c-0.59821-0.66118-1.1967-1.3226-1.7954-1.9844"
           id="path64" />
        <path
           d="m139.92 124.28c1.47-0.98003 2.94-1.96 4.41-2.94"
           id="path66" />
        <path
           d="m139.11 122.61c0.93553-0.53459 1.871-1.0691 2.8063-1.6036"
           id="path68" />
      </g>
      <path
         d="m137.5 121.39c0.84644-0.46196 1.6928-0.92386 2.5391-1.3857"
         stroke-width=".26943px"
         id="path72" />
      <g
         stroke-width=".26458px"
         id="g152">
        <path
           d="m42.522 89.58c-6.1736 7.9375-12.347 15.875-16.095 25.514-3.7483 9.6387-5.0712 20.978-5.7327 26.647l-0.66144 5.6695"
           id="path74" />
        <path
           d="m23.587 132.23c-0.44548 3.7197-0.89092 7.4392-1.3363 11.158"
           id="path76" />
        <path
           d="m24.255 133.43c-0.28956 3.0516-0.57911 6.1029-0.86863 9.154"
           id="path78" />
        <path
           d="m25.057 135.31c-0.20048 2.0938-0.40093 4.1874-0.60136 6.2808"
           id="path80" />
        <path
           d="m25.658 136.78c-0.13366 1.1807-0.2673 2.3611-0.4009 3.5413"
           id="path82" />
        <path
           d="m26.259 138.11c-0.02229 0.33433-0.04456 0.66842-0.06682 1.0023"
           id="path84" />
        <path
           d="m108.78 59.868c13.583 1.4312 27.167 2.8624 38.259 7.9408 11.092 5.0783 19.692 13.803 24.036 18.166 4.3446 4.3624 4.4337 4.3624 4.5225 4.3624"
           id="path86" />
        <path
           d="m178.69 94.116c1.9846 3.2131 3.969 6.4259 5.1344 8.3 1.1654 1.8741 1.5119 2.4096 1.8582 2.9448"
           id="path88" />
        <path
           d="m177.84 96.289c1.7011 2.6461 3.402 5.292 5.1027 7.9375"
           id="path90" />
        <path
           d="m177.65 98.746c1.0396 1.5752 2.0791 3.1501 3.1183 4.7247"
           id="path92" />
        <path
           d="m177.18 100.92c0.44116 0.69326 0.88214 1.3862 1.3229 2.0789"
           id="path94" />
        <path
           d="m45.481 208.59c10.76 9.1396 21.52 18.279 35.231 22.333s30.371 3.0228 47.033 1.9916"
           id="path96" />
        <path
           d="m51.048 207.27c3.7421 3.0738 7.4838 6.1474 11.225 9.2208"
           id="path98" />
        <path
           d="m54.122 206.47c2.8066 2.3611 5.6129 4.722 8.419 7.0826"
           id="path100" />
        <path
           d="m57.73 206.2c1.6039 1.3366 3.2075 2.6729 4.8109 4.009"
           id="path102" />
        <path
           d="m60.67 205.66c0.66846 0.53477 1.3366 1.0693 2.0045 1.6036"
           id="path104" />
        <path
           d="m200.52 164.04c-1.512 4.5359-3.0238 9.0715-4.7248 13.355-1.7009 4.2838-3.5907 8.3153-5.4806 12.347"
           id="path106" />
        <path
           d="m197.86 167.05c-2.3164 5.6128-4.6327 11.225-6.949 16.838"
           id="path108" />
        <path
           d="m195.81 168.31c-1.8709 4.0092-3.7418 8.0182-5.6127 12.027"
           id="path110" />
        <path
           d="m193.43 169.64c-1.3364 2.7173-2.6728 5.4346-4.009 8.1517"
           id="path112" />
        <path
           d="m190.78 170.89c-0.62368 1.2028-1.2473 2.4055-1.8709 3.6081"
           id="path114" />
        <path
           d="m165.17 188.29c4.1427-4.1427 8.2854-8.2854 10.579-10.624s2.7395-2.8731 3.2963-0.022c0.55685 2.8511 1.225 9.0872 1.8932 15.323"
           id="path116" />
        <path
           d="m142.59 193.5c-1.4698-2.1378-2.9398-4.276-4.4099-6.4145"
           id="path118" />
        <path
           d="m145.53 188.29c-2.4497-0.40086-4.8996-0.80176-7.3499-1.2027"
           id="path120" />
        <path
           d="m147.87 203.39c0.69061 1.3367 1.381 2.673 2.0713 4.009"
           id="path122" />
        <path
           d="m148.8 209.14c-3.2741 6.3923-6.5482 12.784-9.8222 19.177"
           id="path124" />
        <path
           d="m155.55 226.44c-5.5233 0.6236-11.047 1.2472-16.571 1.8709"
           id="path126" />
        <path
           d="m157.15 225.98c1.1361-0.15594 2.272-0.31184 3.4077-0.46772"
           id="path128" />
        <path
           d="m157.43 225.04c0.80343-0.11027 1.6066-0.22052 2.4096-0.33073"
           id="path130" />
        <path
           d="m157.76 224.14c0.40971-0.0473 0.81917-0.0945 1.2284-0.14174"
           id="path132" />
        <path
           d="m188.99 200.61c4.473 2.0475 8.9458 4.0949 13.418 6.1421"
           id="path134" />
        <path
           d="m167.44 188.04c1.3229-1.1339 2.6459-2.2679 3.9688-3.4018"
           id="path136" />
        <path
           d="m168.91 188.29c0.84638-0.73501 1.6927-1.47 2.5391-2.205"
           id="path138" />
        <path
           d="m170.38 188.16c0.28958-0.22275 0.57912-0.44547 0.86863-0.66817"
           id="path140" />
        <path
           d="m166.03 228.11c3.339 3.654 6.6778 7.3078 10.016 10.961"
           id="path142" />
        <path
           d="m168.2 228.2c2.3941 2.7406 4.7879 5.4809 7.1816 8.221"
           id="path144" />
        <path
           d="m170.75 228.49c1.3231 1.7642 2.646 3.5281 3.9688 5.2917"
           id="path146" />
        <path
           d="m172.64 228.68c0.69317 0.97674 1.3861 1.9532 2.0789 2.9293"
           id="path148" />
        <path
           d="m174.2 228.44c0.40969 0.56726 0.81917 1.1342 1.2284 1.7009"
           id="path150" />
      </g>
    </g>
  </g>
  <circle
     cx="163"
     cy="201.56"
     r="3.3073"
     stroke-width="0"
     id="circle158" />
  <ellipse
     cx="176.42"
     cy="206.09"
     rx="3.1183"
     ry="3.3073"
     stroke-width="0"
     id="ellipse160" />
  <g
     fill="#f2f2f2"
     stroke-width="0"
     id="g170">
    <ellipse
       cx="162.03"
       cy="200.29"
       rx=".80181"
       ry=".83522"
       id="ellipse162" />
    <circle
       cx="162.87"
       cy="202.09"
       r=".30068"
       id="circle164" />
    <ellipse
       cx="175.7"
       cy="205.03"
       rx=".7684"
       ry=".83522"
       id="ellipse166" />
    <path
       d="m176.93 206.63a0.30068 0.33409 0 0 1-0.27708 0.33305 0.30068 0.33409 0 0 1-0.32057-0.28078 0.30068 0.33409 0 0 1 0.22677-0.37713 0.30068 0.33409 0 0 1 0.35616 0.22159"
       id="path168" />
  </g>
  <path
     d="m164.1 207.94c0.69054 2.1607 1.381 4.3211 2.7062 4.7998 1.3252 0.47868 3.2852-0.72401 5.245-1.9267"
     fill="none"
     stroke="#000"
     stroke-width=".765"
     id="path172" />
  <path
     d="m162.03 207.8-5.8799 1.2027"
     fill="#f0f"
     stroke="#e200de"
     stroke-width=".26458px"
     id="path174" />
  <g
     fill="none"
     stroke="#e200de"
     stroke-width=".26458px"
     id="g182">
    <path
       d="m160.84 206.07-5.3389 1.2048"
       id="path176" />
    <path
       d="m173.7 211.43c3.4963 4.0632 3.4963 4.0632 3.4963 4.0632"
       id="path178" />
    <path
       d="m175.31 210.87c3.0238 3.6853 3.0238 3.6853 3.0238 3.6853"
       id="path180" />
  </g>
</svg>
