<?xml version="1.0" encoding="UTF-8"?>
<svg version="1.1" viewBox="0 0 210 297" xmlns="http://www.w3.org/2000/svg" xmlns:cc="http://creativecommons.org/ns#" xmlns:dc="http://purl.org/dc/elements/1.1/" xmlns:rdf="http://www.w3.org/1999/02/22-rdf-syntax-ns#">
 <metadata>
  <rdf:RDF>
   <cc:Work rdf:about="">
    <dc:format>image/svg+xml</dc:format>
    <dc:type rdf:resource="http://purl.org/dc/dcmitype/StillImage"/>
    <dc:title/>
   </cc:Work>
  </rdf:RDF>
 </metadata>
 <circle cx="100.63" cy="138.03" r="77.863" fill="#ffd506" fill-opacity=".86747" stroke-width=".26458"/>
 <g>
  <path d="m94.613 65.748c-91.941 6.8896-85.67 143-0.53454 143.26" fill="none" stroke="#f59200" stroke-width="3.9688"/>
  <ellipse cx="73.675" cy="135.53" rx="11.225" ry="9.889" fill-opacity=".86747" stroke="#f59200" stroke-width=".26458"/>
  <path d="m135.77 114.39" fill="none" stroke="#000" stroke-width=".26458px"/>
  <path d="m135.77 114.39" fill="none" stroke="#000" stroke-width=".52917"/>
 </g>
 <ellipse transform="rotate(-90)" cx="-132.27" cy="68.31" rx="2.4054" ry="2.1382" fill="#fff" fill-opacity=".86747" stroke-width="0"/>
 <g fill="none" stroke="#000">
  <path d="m115.46 122.94" stroke-width=".26458px"/>
  <path d="m115.46 122.94" stroke-width=".26458px"/>
  <path d="m115.46 122.94" stroke-width=".76729"/>
  <path d="m134.7 126.15" stroke-width=".26458px"/>
  <path d="m115.46 122.94" stroke-width=".79375"/>
  <g stroke-width=".26458px">
   <path d="m130.43 135.24"/>
   <path d="m130.43 135.24"/>
   <path d="m130.43 135.24"/>
   <path d="m130.43 135.24"/>
   <path d="m130.43 135.24"/>
   <path d="m130.43 135.24"/>
  </g>
  <path d="m130.43 135.24" stroke-width=".79375"/>
  <path d="m130.43 135.24" stroke-width=".26458px"/>
  <path d="m130.43 135.24" stroke-width=".26458px"/>
  <path d="m115.46 122.94" stroke-width=".26458"/>
  <path d="m62.854 136.63c-2.2608-0.72814-1.8739-1.3394-3.2072-2.6727" stroke-width=".26458px"/>
  <path d="m130.43 135.24" stroke-width=".26458px"/>
  <path d="m86.87 165.64c12.829 12.829 25.658-0.53454 25.658-0.53454" stroke-width="1.3229"/>
  <path d="m115.46 122.94" stroke-width=".26458px"/>
  <path d="m115.46 122.94" stroke-width=".26458px"/>
  <g stroke-width="2.6458">
   <path d="m138.45 134.17-10.691 0.53454-13.363-1e-5"/>
   <path d="m134.17 144.33-19.778-9.6217"/>
   <path d="m134.7 126.15-20.312 8.5526"/>
  </g>
  <path d="m63.217 132.67c-0.09099-0.28172-0.33161 0.0704-0.47247 0-0.10549-0.0527-0.92894-0.64546-1.0394-0.75595-0.02228-0.0223 0.02228-0.0722 0-0.0945-0.04454-0.0445-0.14444 0.0445-0.18899 0-0.19551-0.19551 0.29877 8e-3 -0.0945-0.18899-0.14607-0.073-0.29771-0.10872-0.37798-0.18899-0.02228-0.0223 0.02228-0.0722 0-0.0945-0.04455-0.0446-0.14444 0.0445-0.18899 0-0.13103-0.13103-0.25574-0.35024-0.37798-0.47247-0.05477-0.0548-0.32321-0.13422-0.37798-0.18899-0.05805-0.058-0.06243-0.2202-0.18899-0.28348-0.07785-0.0389-0.13283-0.0383-0.18899-0.0945-0.04454-0.0445 0.02817-0.13264 0-0.18898-0.07478-0.14956-0.31453-0.31454-0.37798-0.37798-0.07183-0.0718-0.04493-0.37334-0.09449-0.47247-0.09208-0.18416-0.18899-0.1498-0.18899-0.37798" stroke-width=".26458px"/>
  <path d="m65.39 129.27c-0.24182-0.0589-0.46768-0.0921-0.66146-0.18898-0.13095-0.0655-0.23093-0.23094-0.28348-0.28349-0.0396-0.0396-0.22621-0.0659-0.28348-0.0945-0.13022-0.0651-0.12712-0.22161-0.18899-0.28348-0.0315-0.0315-0.25198-0.063-0.28348-0.0945-0.02228-0.0223 0.01408-0.0663 0-0.0945-0.10446-0.20893-0.05865-0.0293-0.18899-0.0945-0.15406-0.077-0.20301-0.2975-0.28348-0.37798-0.15594-0.15594-0.44293-0.3189-0.56696-0.56696-0.02817-0.0563 0.04454-0.14445 0-0.18899-0.12599-0.126-0.09449 0.15749-0.09449-0.0945" stroke-width=".26458px"/>
 </g>
 <ellipse cx="73.988" cy="161.32" rx="5.8799" ry="5.3454" fill="#ffa0ff" fill-opacity=".86747" stroke-width="0"/>
 <circle cx="125.21" cy="162.95" r="5.6127" fill="#ffa0ff" fill-opacity=".86747" stroke="#f59200" stroke-width=".052917"/>
</svg>
